<?xml version="1.0" encoding="UTF-8" standalone="no"?><!-- Generator: Gravit.io --><svg xmlns="http://www.w3.org/2000/svg" xmlns:xlink="http://www.w3.org/1999/xlink" style="isolation:isolate" viewBox="0 0 560 315" width="560pt" height="315pt"><defs><clipPath id="_clipPath_8cOAMy5tWaifxNoTH9UlEqgOHiX0PSbO"><rect width="560" height="315"/></clipPath></defs><g clip-path="url(#_clipPath_8cOAMy5tWaifxNoTH9UlEqgOHiX0PSbO)"><g><circle vector-effect="non-scaling-stroke" cx="135.5" cy="163.5" r="93.5" fill="rgb(255,45,150)"/><circle vector-effect="non-scaling-stroke" cx="286.5" cy="103.50000000000001" r="93.5" fill="rgb(45,255,101)"/><path d="M 115.783 59.5 L 300.217 59.5 C 305.065 59.5 309 63.435 309 68.283 L 309 230.717 C 309 235.565 305.065 239.5 300.217 239.5 L 115.783 239.5 C 110.935 239.5 107 235.565 107 230.717 L 107 68.283 C 107 63.435 110.935 59.5 115.783 59.5 Z" style="stroke:none;fill:#FFFFFF;stroke-miterlimit:10;"/><path d="M 115.783 59.5 L 300.217 59.5 C 305.065 59.5 309 63.435 309 68.283 L 309 230.717 C 309 235.565 305.065 239.5 300.217 239.5 L 115.783 239.5 C 110.935 239.5 107 235.565 107 230.717 L 107 68.283 C 107 63.435 110.935 59.5 115.783 59.5 Z" style="fill:none;stroke:#000000;stroke-width:1;stroke-linecap:square;stroke-miterlimit:2;"/><rect x="115" y="74" width="184" height="59" transform="matrix(1,0,0,1,0,0)" fill="rgb(237,242,247)"/><rect x="115" y="145" width="184" height="59" transform="matrix(1,0,0,1,0,0)" fill="rgb(237,242,247)"/><path d="M 122 216 L 293 216 C 296.587 216 299.5 218.913 299.5 222.5 L 299.5 222.5 C 299.5 226.087 296.587 229 293 229 L 122 229 C 118.413 229 115.5 226.087 115.5 222.5 L 115.5 222.5 C 115.5 218.913 118.413 216 122 216 Z" style="stroke:none;fill:#90CDF4;stroke-miterlimit:10;"/></g></g></svg>