<?xml version="1.0" encoding="UTF-8" standalone="no"?><!-- Generator: Gravit.io --><svg xmlns="http://www.w3.org/2000/svg" xmlns:xlink="http://www.w3.org/1999/xlink" style="isolation:isolate" viewBox="0 0 560 315" width="560pt" height="315pt"><defs><clipPath id="_clipPath_ITgUHGCbcDXxHHbS4jTDEk0vl9IfCCRv"><rect width="560" height="315"/></clipPath></defs><g clip-path="url(#_clipPath_ITgUHGCbcDXxHHbS4jTDEk0vl9IfCCRv)"><g><circle vector-effect="non-scaling-stroke" cx="236" cy="157.5" r="132.5" fill="rgb(255,0,0)"/><circle vector-effect="non-scaling-stroke" cx="236" cy="157.50000000000006" r="107" fill="rgb(255,255,255)"/><g><path d="M 176.363 60.31 L 296.637 60.31 C 301.882 60.31 306.14 64.568 306.14 69.813 L 306.14 246.187 C 306.14 251.432 301.882 255.69 296.637 255.69 L 176.363 255.69 C 171.118 255.69 166.86 251.432 166.86 246.187 L 166.86 69.813 C 166.86 64.568 171.118 60.31 176.363 60.31 Z" style="stroke:none;fill:#FFFFFF;stroke-miterlimit:10;"/><path d="M 176.363 60.31 L 296.637 60.31 C 301.882 60.31 306.14 64.568 306.14 69.813 L 306.14 246.187 C 306.14 251.432 301.882 255.69 296.637 255.69 L 176.363 255.69 C 171.118 255.69 166.86 251.432 166.86 246.187 L 166.86 69.813 C 166.86 64.568 171.118 60.31 176.363 60.31 Z" style="fill:none;stroke:#000000;stroke-width:1;stroke-linecap:square;stroke-miterlimit:2;"/><rect x="180.361" y="172.133" width="111.278" height="21.357" transform="matrix(1,0,0,1,0,0)" fill="rgb(237,242,247)"/><ellipse vector-effect="non-scaling-stroke" cx="235.99999999999991" cy="101.33957489878546" rx="27.640068388282117" ry="30.45318825910931" fill="rgb(237,242,247)"/><rect x="180.361" y="142.867" width="111.278" height="21.357" transform="matrix(1,0,0,1,0,0)" fill="rgb(237,242,247)"/><path d="M 189.78 212.47 L 282.22 212.47 C 287.419 212.47 291.64 216.692 291.64 221.892 L 291.64 222.828 C 291.64 228.028 287.419 232.25 282.22 232.25 L 189.78 232.25 C 184.581 232.25 180.36 228.028 180.36 222.828 L 180.36 221.892 C 180.36 216.692 184.581 212.47 189.78 212.47 Z" style="stroke:none;fill:#90CDF4;stroke-miterlimit:10;"/></g><rect x="111.814" y="142.5" width="248.371" height="30" transform="matrix(0.707,0.707,-0.707,0.707,180.492,-120.747)" fill="rgb(255,0,0)"/><g clip-path="url(#_clipPath_vRHjoS24ngbt75BClJmANnl1AfQ0HbyF)"><text transform="matrix(1,0,0,1,215.626,226.655)" style="font-family:'Open Sans';font-weight:700;font-size:12px;font-style:normal;fill:#000000;stroke:none;">LOGIN</text></g><defs><clipPath id="_clipPath_vRHjoS24ngbt75BClJmANnl1AfQ0HbyF"><rect x="0" y="0" width="79" height="10" transform="matrix(1,0,0,1,196.5,217)"/></clipPath></defs></g></g></svg>